<svg xmlns="http://www.w3.org/2000/svg" width="421.57" height="276.148" viewBox="0 0 421.57 276.148">
    <defs>
        <style>
            .cls-1{fill:#ebebeb}.cls-2{fill:#dbdbdb}.cls-3{fill:#fff}.cls-10,.cls-15,.cls-9{fill:none}.cls-10{stroke:#263238;stroke-miterlimit:10}.cls-13{fill:#263238}.cls-14{fill:#455a64}.cls-15{stroke:#bf988f;stroke-width:11px}
        </style>
    </defs>
    <g id="No_Data_Found" transform="translate(-879 -819.271)">
        <g id="no_data" transform="translate(879 819.271)">
            <g id="Background_Complete">
                <g id="Group_11527" transform="translate(320.679 30.922)">
                    <path id="Path_12966" d="M629.677 134.82l-6.591 31.916-4.239-4.136-7.22 5.146-5.514-6.846-12.373 8.994-10.566-17.679-11.793 6.906-4.674-6.448-14.973 8.436-4.505-9.643 10.495-50.832 56.269 11.617z" class="cls-1" transform="translate(-536.233 -100.634)"/>
                    <path id="Path_12967" d="M642.441 117.5l15.688 22.566-19.515-4.029z" class="cls-2" transform="translate(-564.683 -105.886)"/>
                    <path id="Path_12968" d="M616.714 198.978l-9.666 46.822-75.786-15.643 9.593-46.454 4.505 9.643 14.973-8.436 4.675 6.448 11.793-6.906 10.566 17.679 12.373-8.994 5.514 6.846 7.219-5.146z" class="cls-1" transform="translate(-531.262 -126.496)"/>
                </g>
                <g id="Group_11529" transform="translate(214.286)">
                    <path id="Path_12969" d="M460.145 153.65l-77.236 4.78-6.136-99.147 57.347-3.549 21.057 17.661z" class="cls-1" transform="translate(-376.774 -55.734)"/>
                    <path id="Path_12970" d="M460.045 55.734L481.1 73.395l-19.888 1.231z" class="cls-2" transform="translate(-402.698 -55.734)"/>
                    <g id="Group_11528" transform="translate(25.966 23.744)">
                        <path id="Path_12971" d="M424.449 133.175l-.3-2.236c-.779-4.636.49-9.819 4.518-15.243 3.631-4.8 5.6-8.286 5.384-12.172-.247-4.406-3.175-7.188-8.622-6.969a15.376 15.376 0 0 0-8.574 3.167l-2.378-5.326c2.735-2.233 7.581-3.89 12.159-4.147 9.934-.556 14.769 5.325 15.137 11.889.328 5.874-2.716 10.29-6.587 15.446-3.549 4.7-4.718 8.582-4.213 12.973l.212 2.241zm-1.223 12.2a5.115 5.115 0 0 1 4.878-5.732c3.023-.169 5.222 1.961 5.4 5.157a5.152 5.152 0 1 1-10.279.575z" class="cls-2" transform="translate(-414.478 -90.211)"/>
                    </g>
                </g>
                <g id="Group_11530" transform="translate(31.595 23.709)">
                    <path id="Path_12972" d="M136.967 126.521L129.195 123l-1.078 2.38a2.029 2.029 0 0 1-1.771 1.18 11.789 11.789 0 0 0-1.271.125 2.027 2.027 0 0 1-1.962-.813l-1.522-2.123-6.94 4.972 1.521 2.123a2.028 2.028 0 0 1 .138 2.12 11.884 11.884 0 0 0-.527 1.163 2.027 2.027 0 0 1-1.687 1.3l-2.6.256.838 8.493 2.609-.26a2.032 2.032 0 0 1 1.9.951c.112.176.23.349.353.521s.249.338.379.5a2.025 2.025 0 0 1 .289 2.1l-1.085 2.4 7.772 3.525 1.083-2.385a2.028 2.028 0 0 1 1.773-1.178 12.04 12.04 0 0 0 1.265-.123 2.026 2.026 0 0 1 1.961.813l1.522 2.124 6.94-4.972-1.522-2.125a2.029 2.029 0 0 1-.139-2.118 11.8 11.8 0 0 0 .523-1.159 2.029 2.029 0 0 1 1.687-1.3l2.606-.258-.838-8.493-2.607.258a2.026 2.026 0 0 1-1.9-.95q-.17-.264-.356-.524t-.379-.5a2.031 2.031 0 0 1-.289-2.109zm-4.409 7.857a6.991 6.991 0 1 1-9.754-1.616 6.986 6.986 0 0 1 9.754 1.616z" class="cls-1" transform="translate(-111.497 -100.382)"/>
                    <path id="Path_12973" d="M654.834 291.713l-5.178 2.988.915 1.585a1.419 1.419 0 0 1-.05 1.49 8.211 8.211 0 0 0-.447.775 1.422 1.422 0 0 1-1.264.786h-1.83v5.981h1.83a1.422 1.422 0 0 1 1.264.786 8.22 8.22 0 0 0 .447.775 1.419 1.419 0 0 1 .05 1.49l-.915 1.585 5.178 2.988.917-1.592a1.423 1.423 0 0 1 1.319-.7q.219.011.44.011c.147 0 .294 0 .439-.011a1.419 1.419 0 0 1 1.314.692l.922 1.6 5.178-2.988-.916-1.589a1.419 1.419 0 0 1 .052-1.49 8.377 8.377 0 0 0 .446-.771 1.421 1.421 0 0 1 1.263-.785h1.83v-5.981h-1.83a1.421 1.421 0 0 1-1.263-.784 8.2 8.2 0 0 0-.446-.771 1.421 1.421 0 0 1-.052-1.491l.916-1.589-5.178-2.988-.917 1.59a1.419 1.419 0 0 1-1.315.694c-.146-.008-.294-.011-.443-.011s-.294 0-.44.011a1.425 1.425 0 0 1-1.32-.7zm2.676 5.717a4.9 4.9 0 1 1-4.9 4.9 4.894 4.894 0 0 1 4.9-4.9z" class="cls-1" transform="translate(-278.203 -152.907)"/>
                    <path id="Path_12974" d="M168.227 90.851l-4.749 3.631 1.112 1.454a1.422 1.422 0 0 1 .143 1.484 8.278 8.278 0 0 0-.344.826 1.42 1.42 0 0 1-1.151.943l-1.815.236.772 5.93 1.815-.236a1.421 1.421 0 0 1 1.354.616 8.274 8.274 0 0 0 .543.711 1.419 1.419 0 0 1 .242 1.471l-.7 1.69 5.52 2.295.7-1.7a1.423 1.423 0 0 1 1.218-.86q.218-.018.438-.046t.435-.067a1.418 1.418 0 0 1 1.392.516l1.12 1.464 4.75-3.631-1.114-1.458a1.421 1.421 0 0 1-.14-1.485 8.117 8.117 0 0 0 .343-.822 1.423 1.423 0 0 1 1.151-.941l1.815-.236-.772-5.93-1.815.236a1.423 1.423 0 0 1-1.354-.616 8.205 8.205 0 0 0-.542-.707 1.42 1.42 0 0 1-.244-1.471l.7-1.695-5.52-2.295-.7 1.695a1.422 1.422 0 0 1-1.215.858c-.146.011-.293.027-.441.046s-.291.041-.435.067a1.424 1.424 0 0 1-1.4-.52zm3.391 5.324a4.9 4.9 0 1 1-4.227 5.487 4.894 4.894 0 0 1 4.227-5.488z" class="cls-1" transform="translate(-127.04 -90.16)"/>
                </g>
                <g id="Group_11536" transform="translate(0 96.554)">
                    <g id="Group_11531" transform="translate(15.794)">
                        <path id="Path_12975" d="M113.921 279.161a188.413 188.413 0 0 0-.274-20 254.648 254.648 0 0 0-6.264-40.738c-1.746-7.539-3.9-14.951-6.139-22.354-.067-.223-.424-.16-.362.073 6.931 26.1 12.617 53.031 12.225 80.16-.109 7.593-.988 15.05-1.709 22.594-.019.2.313.282.359.075a113.367 113.367 0 0 0 2.164-19.81z" class="cls-1" transform="translate(-92.39 -195.935)"/>
                        <path id="Path_12976" d="M97.046 196.242s-10.5 26.651-8.149 32.914 7.2 7.6 7.2 7.6-6.424 9.172-1.934 17.774 14.464 8.2 15.126 17.949c-.004.001.552-40.779-12.243-76.237z" class="cls-1" transform="translate(-88.554 -196.031)"/>
                        <path id="Path_12977" d="M111.287 258.179a.206.206 0 0 0-.01-.14 244.1 244.1 0 0 0-10.185-53.612c-.016-.052-.1-.034-.086.019q3.12 11.694 5.513 23.514a11.594 11.594 0 0 0-5.012-2.795.029.029 0 0 0-.019.054 13.267 13.267 0 0 1 5.175 3.458q.461 2.316.893 4.637c-2.346-2.622-5.6-3.923-8.856-5.16a.038.038 0 0 0-.025.072c3.391 1.381 6.768 3.16 9.066 6.082q1.2 6.634 2.109 13.313a12.7 12.7 0 0 0-6.261-3.588c-.073-.018-.114.09-.039.112a13.226 13.226 0 0 1 6.35 4.067.173.173 0 0 0 .039.03q.315 2.349.594 4.7a16.169 16.169 0 0 0-4.388-2.647c-.043-.018-.065.049-.023.067a15.091 15.091 0 0 1 4.4 2.909c.018.017.037.015.056.022.175 1.493.349 2.985.5 4.481a21.332 21.332 0 0 0-8.905-6.359c-.069-.026-.1.079-.038.107a23.2 23.2 0 0 1 8.777 6.753.2.2 0 0 0 .221.07q.34 3.44.6 6.892c0 .031.054.034.052 0q-.21-3.526-.498-7.058z" class="cls-3" transform="translate(-91.697 -198.569)"/>
                        <path id="Path_12978" d="M101.88 229.819a13.129 13.129 0 0 0-6.308-1.966c-.052 0-.056.072-.006.08a24.986 24.986 0 0 1 6.237 2.037c.09.038.155-.096.077-.151z" class="cls-3" transform="translate(-90.726 -205.872)"/>
                        <path id="Path_12979" d="M104.44 270.947a13.281 13.281 0 0 0-4.735-1.619c-.058-.01-.063.079-.006.09a17.75 17.75 0 0 1 4.684 1.642c.064.031.117-.076.057-.113z" class="cls-3" transform="translate(-92.011 -218.783)"/>
                    </g>
                    <g id="Group_11532" transform="translate(37.89 32.993)">
                        <path id="Path_12980" d="M147.676 244.644a71.342 71.342 0 0 0-12.153 10.624A43.635 43.635 0 0 0 127 269.721a108.057 108.057 0 0 0-6.349 34.569 83.959 83.959 0 0 0 1.872 19.441.185.185 0 0 0 .363-.068 109.037 109.037 0 0 1 .191-33.983c1.805-11.025 4.637-23.019 11.646-31.979 3.816-4.879 8.574-8.717 13.277-12.684.246-.209-.07-.552-.324-.373z" class="cls-1" transform="translate(-120.638 -244.077)"/>
                        <path id="Path_12981" d="M122.9 296.118a65.327 65.327 0 0 1 8.859-11.323c5.253-5.251 9.677-8.984 10.359-12.457s-5.262-6.031-5.262-6.031 7.269 1.305 9.258-1.745 2.949-20.719 2.949-20.719-13.224 9.441-19.385 22.676-6.778 29.599-6.778 29.599z" class="cls-1" transform="translate(-121.342 -243.843)"/>
                        <path id="Path_12982" d="M144.461 250.39c-5.564 5.465-11.163 11.288-14.44 18.468a70.878 70.878 0 0 0-2.921 7.615v.012c-.169.523-.34 1.043-.5 1.57a.2.2 0 0 0-.027.085 149.888 149.888 0 0 0-3.756 16.324c-.007.035.046.053.054.017.57-2.757 1.2-5.54 1.9-8.316a.2.2 0 0 0 .079-.015 11.566 11.566 0 0 1 3.47-.882c.079-.007.073-.145-.008-.141a13.01 13.01 0 0 0-3.432.626c.64-2.5 1.337-5 2.12-7.458a36.914 36.914 0 0 1 7.843-1.025c.027 0 .032-.041 0-.042a29.652 29.652 0 0 0-7.712.654c.136-.422.278-.842.419-1.262a39.712 39.712 0 0 1 5.219-.884c.032 0 .03-.057 0-.056a25.344 25.344 0 0 0-5.11.621c.72-2.128 1.5-4.227 2.359-6.272a38 38 0 0 1 2.5-4.848 31.921 31.921 0 0 1 4.233-.755c.041 0 .036-.068 0-.07a11.415 11.415 0 0 0-3.958.391c.7-1.124 1.426-2.224 2.209-3.29 2.965-.656 5.972-1.266 9-.7.052.01.072-.079.02-.092-2.888-.759-5.754-.321-8.627.247.313-.417.634-.828.958-1.238a19.67 19.67 0 0 1 5.54-.871.031.031 0 0 0 .006-.061 14.457 14.457 0 0 0-5.166.459c2.452-3.046 5.16-5.907 7.837-8.736.12-.128.023-.205-.109-.075z" class="cls-3" transform="translate(-121.315 -245.86)"/>
                        <path id="Path_12983" d="M152.809 267.848a12.085 12.085 0 0 0-2.629-.092.1.1 0 0 0 .01.187c.87.026 1.74-.039 2.611.008a.052.052 0 0 0 .008-.103z" class="cls-3" transform="translate(-129.811 -251.275)"/>
                        <path id="Path_12984" d="M138.362 292.8a11.915 11.915 0 0 0-4.076.818c-.032.012-.014.065.019.058 1.346-.32 2.707-.45 4.067-.675a.1.1 0 0 0-.01-.201z" class="cls-3" transform="translate(-124.881 -259.083)"/>
                        <path id="Path_12985" d="M135.269 284.2a8.652 8.652 0 0 0-1.73.156.052.052 0 0 0 .006.1 8.681 8.681 0 0 0 1.733-.081.091.091 0 0 0-.009-.175z" class="cls-3" transform="translate(-124.641 -256.404)"/>
                    </g>
                    <g id="Group_11533" transform="translate(0 52.01)">
                        <path id="Path_12986" d="M66.48 271.887a60.077 60.077 0 0 1 12.29 5.788 36.726 36.726 0 0 1 10.238 9.725 90.928 90.928 0 0 1 13.128 26.508 70.7 70.7 0 0 1 2.979 16.166.156.156 0 0 1-.31.028 91.8 91.8 0 0 0-8.005-27.454c-4.009-8.5-9.074-17.557-16.816-23.189-4.216-3.066-8.954-5.073-13.677-7.2-.251-.108-.075-.459.173-.372z" class="cls-1" transform="translate(-65.796 -271.586)"/>
                        <path id="Path_12987" d="M98.876 307.714a55.033 55.033 0 0 0-9.786-7.114c-5.465-3.036-9.907-5.034-11.263-7.686s2.864-6.1 2.864-6.1-5.581 2.736-7.9.727-7.175-16.086-7.175-16.086 12.884 4.584 20.929 13.87 12.331 22.389 12.331 22.389z" class="cls-1" transform="translate(-65.62 -271.456)"/>
                        <path id="Path_12988" d="M100.806 306.209c-6.444-12.095-15.042-23.036-26.824-30.259l-.006.008a59.191 59.191 0 0 1 8.624 6.748 13.656 13.656 0 0 0-6.927 1.462.04.04 0 0 0 .035.072 18.976 18.976 0 0 1 7.127-1.2.143.143 0 0 0 .081-.03q.627.6 1.239 1.207a21.92 21.92 0 0 0-3.7.491.026.026 0 0 0 .01.051 18.912 18.912 0 0 1 3.91-.322 80.906 80.906 0 0 1 6.077 6.9 6.179 6.179 0 0 0-2.588.188.05.05 0 0 0 .019.1 13.838 13.838 0 0 1 2.763-.038c.353.448.709.895 1.055 1.35a24.992 24.992 0 0 0-7.82.76.031.031 0 0 0 .012.06 31.486 31.486 0 0 1 8.031-.521c.328.436.64.884.962 1.325a16.96 16.96 0 0 0-4.655.533c-.059.014-.042.107.018.093a17.8 17.8 0 0 1 4.819-.375c1.386 1.91 2.713 3.861 3.99 5.838a4.349 4.349 0 0 0-2.043.123.029.029 0 0 0 .011.056 8.891 8.891 0 0 1 2.211.1q1.721 2.68 3.319 5.405c.088.15.335.036.25-.125z" class="cls-3" transform="translate(-68.221 -272.855)"/>
                        <path id="Path_12989" d="M96.678 305.307a10 10 0 0 0-3.743.458c-.034.011-.026.063.01.056a28.963 28.963 0 0 1 3.722-.382.066.066 0 0 0 .011-.132z" class="cls-3" transform="translate(-74.117 -281.985)"/>
                        <path id="Path_12990" d="M81.262 283.906a6.425 6.425 0 0 0-1.726.1c-.067.01-.046.11.019.1.567-.061 1.127-.039 1.7-.056a.074.074 0 0 0 .007-.144z" class="cls-3" transform="translate(-69.94 -275.324)"/>
                    </g>
                    <g id="Group_11535" transform="translate(20.791 87.398)">
                        <g id="Group_11534" transform="translate(0 2.702)">
                            <path id="Path_12991" d="M124.892 364.928H95.81l4.147-30.376 1.06-7.788h18.669l1.06 7.788z" class="cls-2" transform="translate(-95.81 -326.764)"/>
                            <path id="Path_12992" fill="#c7c7c7" d="M122.62 334.552h-20.789l1.06-7.788h18.669z" transform="translate(-97.684 -326.764)"/>
                        </g>
                        <path id="Rectangle_911" d="M0 0H24.009V6.596H0z" class="cls-2" transform="translate(2.537)"/>
                    </g>
                </g>
            </g>
            <g id="Floor" transform="translate(2.303 224.818)">
                <path id="Line_182" fill="none" stroke="#263238" stroke-linecap="round" stroke-linejoin="round" d="M0 0L418.767 0"/>
            </g>
            <g id="Shadow" transform="translate(15.59 232.871)">
                <g id="Group_11537">
                    <ellipse id="Ellipse_215" cx="197.474" cy="21.638" class="cls-1" rx="197.474" ry="21.638"/>
                </g>
            </g>
            <g id="Folder" transform="translate(81.065 69.275)">
                <g id="Group_11542">
                    <g id="Group_11540" transform="translate(60.816)">
                        <g id="Group_11538">
                            <path id="Path_12993" fill="#ffbfa2" d="M481.465 354.268H271.638L301.979 182.2H511.8z" transform="translate(-271.638 -164.38)"/>
                            <path id="Path_12994" fill="#febfa4" d="M387.507 156.325h-68.671l-3.142 17.82h73.49z" transform="translate(-285.354 -156.325)"/>
                        </g>
                        <g id="Group_11539" opacity="0.1">
                            <path id="Path_12995" d="M481.465 354.268H271.638L301.979 182.2H511.8z" class="cls-9" transform="translate(-271.638 -164.38)"/>
                            <path id="Path_12996" d="M387.507 156.325h-68.671l-3.142 17.82h73.49z" class="cls-9" transform="translate(-285.354 -156.325)"/>
                        </g>
                    </g>
                    <g id="Group_11541" transform="translate(0 1.276)">
                        <path id="Line_183" d="M0 5.993L0 0" class="cls-10" transform="translate(18.02)"/>
                        <path id="Line_184" d="M2.997 5.19L0 0" class="cls-10" transform="translate(8.922 2.568)"/>
                        <path id="Line_185" d="M5.19 2.997L0 0" class="cls-10" transform="translate(2.326 9.341)"/>
                        <path id="Line_186" d="M5.993 0L0 0" class="cls-10" transform="translate(0 18.504)"/>
                        <path id="Line_187" d="M5.19 0L0 2.997" class="cls-10" transform="translate(2.568 24.607)"/>
                        <path id="Line_188" d="M2.997 0L0 5.19" class="cls-10" transform="translate(9.341 29.009)"/>
                        <path id="Line_189" d="M0 0L0 5.993" class="cls-10" transform="translate(18.504 30.532)"/>
                        <path id="Line_190" d="M0 0L2.997 5.19" class="cls-10" transform="translate(24.606 28.767)"/>
                        <path id="Line_191" d="M0 0L5.19 2.997" class="cls-10" transform="translate(29.009 24.188)"/>
                        <path id="Line_192" d="M0 0L5.993 0" class="cls-10" transform="translate(30.532 18.021)"/>
                        <path id="Line_193" d="M0 2.997L5.19 0" class="cls-10" transform="translate(28.767 8.922)"/>
                        <path id="Line_194" d="M0 5.19L2.997 0" class="cls-10" transform="translate(24.187 2.326)"/>
                    </g>
                    <path id="Path_12997" fill="#ffdac9" d="M467.317 357.091H257.039L227.184 191.27h210.278z" transform="translate(-196.983 -167.204)"/>
                </g>
            </g>
            <g id="Fly" transform="translate(337.445 19.308)">
                <g id="Group_11548">
                    <path id="Path_12998" fill="none" stroke="#263238" stroke-dasharray="4" stroke-miterlimit="10" d="M555.607 253.761c12.209-2.622 23.238-11.742 24.17-22.624 1.83-21.349-24.17-33.142-21.484-57.813 2.562-23.532 27.245-25.212 37.141-21.959 10.929 3.593 7.184 14.1-2.711 12.741-17.154-2.35-27.938-21-19.79-42.156 7.726-20.062 30.092-24.264 30.092-24.264" transform="translate(-555.607 -88.103)"/>
                    <g id="Group_11547" transform="translate(40.716)">
                        <path id="Path_12999" d="M635.111 90.751c-1.757-5.443-13.52-3.488-11.223 3.624s12.981 1.819 11.223-3.624z" class="cls-13" transform="translate(-617.489 -84.97)"/>
                        <g id="Group_11544">
                            <path id="Path_13000" d="M614.731 87.356c.087-2.387 3.408-4.224 8.1-3.376a26.325 26.325 0 0 1 9.115 4.009 26.227 26.227 0 0 1-9.385 3.341c-4.741.5-7.918-1.575-7.83-3.974z" class="cls-1" transform="translate(-614.729 -83.77)"/>
                            <g id="Group_11543" transform="translate(2.619 1.472)">
                                <path id="Path_13001" d="M633.133 89.652c-2.437.017-4.871-.065-7.305-.139-2.432-.1-4.866-.2-7.3-.4 2.438-.018 4.872.065 7.306.14 2.437.107 4.866.204 7.299.399z" class="cls-13" transform="translate(-618.532 -86.906)"/>
                                <path id="Path_13002" d="M621.583 85.908a19.412 19.412 0 0 1 2.014 1.109 19.09 19.09 0 0 1 1.877 1.327 18.911 18.911 0 0 1-2.014-1.109 19.222 19.222 0 0 1-1.877-1.327z" class="cls-13" transform="translate(-619.482 -85.908)"/>
                                <path id="Path_13003" d="M629.019 89.57a21.406 21.406 0 0 1-1.955 1.411 20.958 20.958 0 0 1-2.094 1.195 22.477 22.477 0 0 1 4.049-2.606z" class="cls-13" transform="translate(-620.536 -87.048)"/>
                                <path id="Path_13004" d="M631.877 87.618a5.132 5.132 0 0 1 1.781 1.436 4.85 4.85 0 0 1-.972-.618 4.921 4.921 0 0 1-.809-.818z" class="cls-13" transform="translate(-622.687 -86.44)"/>
                            </g>
                        </g>
                        <g id="Group_11546" transform="translate(3.899 7.171)">
                            <path id="Path_13005" d="M620.967 104.766c1.467 1.885 5.235 1.432 8.547-2a26.311 26.311 0 0 0 5.049-8.583A26.229 26.229 0 0 0 625 96.962c-4.144 2.368-5.508 5.91-4.033 7.804z" class="cls-1" transform="translate(-620.391 -94.182)"/>
                            <g id="Group_11545" transform="translate(2.642)">
                                <path id="Path_13006" d="M635.758 94.182c-1.987 1.412-3.913 2.9-5.844 4.386-1.912 1.508-3.83 3.009-5.686 4.589 1.988-1.411 3.914-2.9 5.844-4.385 1.913-1.509 3.828-3.01 5.686-4.59z" class="cls-13" transform="translate(-624.228 -94.182)"/>
                                <path id="Path_13007" d="M628.579 106.111a19.445 19.445 0 0 0 .986-2.076 19.163 19.163 0 0 0 .746-2.174 19.05 19.05 0 0 0-.985 2.076 19.309 19.309 0 0 0-.747 2.174z" class="cls-13" transform="translate(-625.583 -96.572)"/>
                                <path id="Path_13008" d="M631.78 99.628a22.537 22.537 0 0 0-4.808.253 21.013 21.013 0 0 0 2.411 0 21.342 21.342 0 0 0 2.397-.253z" class="cls-13" transform="translate(-625.082 -95.866)"/>
                                <path id="Path_13009" d="M635.93 99.628a4.875 4.875 0 0 0 .426-1.069 4.794 4.794 0 0 0 .178-1.137 4.809 4.809 0 0 0-.427 1.069 4.888 4.888 0 0 0-.177 1.137z" class="cls-13" transform="translate(-627.871 -95.191)"/>
                            </g>
                        </g>
                        <path id="Path_13010" d="M639.1 90.343a2.063 2.063 0 1 1 1.329-2.6 2.064 2.064 0 0 1-1.329 2.6z" class="cls-14" transform="translate(-621.476 -84.563)"/>
                        <path id="Path_13011" d="M640.94 96.046a2.064 2.064 0 1 1 1.33-2.6 2.064 2.064 0 0 1-1.33 2.6z" class="cls-14" transform="translate(-622.049 -86.338)"/>
                    </g>
                </g>
            </g>
        </g>
        <g id="Group_11549" transform="translate(-7 -4)">
            <path id="Line_196" d="M0 0L47 47" class="cls-15" transform="translate(1089.5 977)"/>
            <path id="Line_197" d="M47 0L0 47" class="cls-15" transform="translate(1089.5 977)"/>
        </g>
    </g>
</svg>
